<svg xmlns="http://www.w3.org/2000/svg" viewBox="0 0 800 520" role="img" aria-labelledby="t d">
<title id="t">Двусторонний вертикальный металлический евроштакетник шахматкой</title>
<desc id="d">Профессиональная схема двух рядов узкого ребристого евроштакетника с полукруглым верхом в шахматном порядке</desc>
<defs>
  <linearGradient id="bg" x1="0" y1="0" x2="0" y2="1"><stop stop-color="#faf9f5"/><stop offset="1" stop-color="#ece9e1"/></linearGradient>
  <linearGradient id="front" x1="0" y1="0" x2="1" y2="0"><stop stop-color="#d9dcde"/><stop offset=".18" stop-color="#f4f5f5"/><stop offset=".5" stop-color="#b8bdc0"/><stop offset=".78" stop-color="#f0f1f1"/><stop offset="1" stop-color="#9ca2a6"/></linearGradient>
  <linearGradient id="back" x1="0" y1="0" x2="1" y2="0"><stop stop-color="#7a8186"/><stop offset=".5" stop-color="#a5aaad"/><stop offset="1" stop-color="#60676c"/></linearGradient>
  <linearGradient id="post" x1="0" y1="0" x2="1" y2="0"><stop stop-color="#555d62"/><stop offset=".5" stop-color="#899095"/><stop offset="1" stop-color="#444b50"/></linearGradient>
  <filter id="shadow" x="-20%" y="-20%" width="140%" height="150%"><feDropShadow dx="0" dy="5" stdDeviation="6" flood-color="#1e2326" flood-opacity=".13"/></filter>
  <g id="pf"><path d="M0 18 A12 12 0 0 1 24 18 V330 H0 Z" fill="url(#front)" stroke="#8f969a" stroke-width="1.1"/><path d="M5 24V320M12 20V320M19 24V320" stroke="#80878b" stroke-width=".9" opacity=".58"/></g>
  <g id="pb"><path d="M0 18 A12 12 0 0 1 24 18 V330 H0 Z" fill="url(#back)" stroke="#656c71" stroke-width="1"/><path d="M6 24V320M18 24V320" stroke="#d4d7d8" stroke-width=".65" opacity=".35"/></g>
</defs>
<rect width="800" height="520" rx="26" fill="url(#bg)"/>
<ellipse cx="400" cy="444" rx="310" ry="16" fill="#777" opacity=".08"/>
<g transform="translate(65 48)" filter="url(#shadow)">
  <rect x="15" y="22" width="25" height="365" rx="3" fill="url(#post)" stroke="#474e53" stroke-width="1.5"/>
  <rect x="630" y="22" width="25" height="365" rx="3" fill="url(#post)" stroke="#474e53" stroke-width="1.5"/>
  <g opacity=".92">
    <use href="#pb" x="73" y="15"/><use href="#pb" x="103" y="15"/><use href="#pb" x="133" y="15"/><use href="#pb" x="163" y="15"/>
    <use href="#pb" x="193" y="15"/><use href="#pb" x="223" y="15"/><use href="#pb" x="253" y="15"/><use href="#pb" x="283" y="15"/>
    <use href="#pb" x="313" y="15"/><use href="#pb" x="343" y="15"/><use href="#pb" x="373" y="15"/><use href="#pb" x="403" y="15"/>
    <use href="#pb" x="433" y="15"/><use href="#pb" x="463" y="15"/><use href="#pb" x="493" y="15"/><use href="#pb" x="523" y="15"/><use href="#pb" x="553" y="15"/>
  </g>
  <rect x="32" y="126" width="605" height="15" rx="2" fill="#8c9296" stroke="#6d7478"/>
  <rect x="32" y="287" width="605" height="15" rx="2" fill="#8c9296" stroke="#6d7478"/>
  <g>
    <use href="#pf" x="58" y="10"/><use href="#pf" x="88" y="10"/><use href="#pf" x="118" y="10"/><use href="#pf" x="148" y="10"/>
    <use href="#pf" x="178" y="10"/><use href="#pf" x="208" y="10"/><use href="#pf" x="238" y="10"/><use href="#pf" x="268" y="10"/>
    <use href="#pf" x="298" y="10"/><use href="#pf" x="328" y="10"/><use href="#pf" x="358" y="10"/><use href="#pf" x="388" y="10"/>
    <use href="#pf" x="418" y="10"/><use href="#pf" x="448" y="10"/><use href="#pf" x="478" y="10"/><use href="#pf" x="508" y="10"/><use href="#pf" x="538" y="10"/><use href="#pf" x="568" y="10"/>
  </g>
</g>
</svg>